<?xml version="1.0" encoding="UTF-8"?>
<svg xmlns="http://www.w3.org/2000/svg" viewBox="0 0 1133.86 1133.86">
  <defs>
    <style>
      .cls-1 {
        stroke-width: 29.39px;
      }

      .cls-1, .cls-2 {
        fill: none;
        stroke: #fff;
        stroke-linecap: round;
        stroke-linejoin: round;
      }

      .cls-3 {
        fill: #f19cb2;
      }

      .cls-2 {
        stroke-width: 43.29px;
      }
    </style>
  </defs>
  <g id="Capa_5" data-name="Capa 5">
    <polygon class="cls-3" points="72.6 464.01 72.6 1029.27 100.2 1060.82 147.73 1077.59 929.35 1072.29 972.07 1038.13 972.07 1014.24 972.07 907.45 1036.32 903.01 1036.32 717.61 965.97 717.61 972.07 594.56 927.18 546.18 896.94 541.74 875.57 464.01 828.23 428.51 648.31 416.33 108.21 423.07 82.93 443.47 72.6 464.01"/>
    <circle class="cls-3" cx="278.26" cy="174.98" r="150.82"/>
  </g>
  <g id="Capa_2" data-name="Capa 2">
    <path class="cls-2" d="m826.9,421.24H151.81s-57.47-6.63-75.15,47.7v60.71"/>
    <path class="cls-2" d="m892.38,546.5H151.81s-57.47,6.63-75.15-57.47"/>
    <path class="cls-2" d="m817.22,421.24h0s57.47-6.63,75.15,57.47v67.98"/>
    <path class="cls-2" d="m901.22,546.69s57.47-6.63,75.15,57.47v118.24"/>
    <path class="cls-2" d="m901.22,1082.69H151.81s-57.47,6.63-75.15-67.24V493.55"/>
    <path class="cls-2" d="m901.22,1082.69s57.47,6.63,75.15-57.47v-112.72"/>
    <path class="cls-2" d="m719.06,780.07h0c17.68-64.1,75.15-57.47,75.15-57.47h246.43v189.9"/>
    <line class="cls-2" x1="719.06" y1="780.07" x2="719.06" y2="855.03"/>
    <path class="cls-2" d="m719.06,855.03h0c17.68,64.1,75.15,57.47,75.15,57.47h246.43s-9.68,0-9.68,0"/>
    <circle class="cls-2" cx="815.91" cy="817.45" r="9.74"/>
    <circle class="cls-1" cx="279.79" cy="179.7" r="144.84"/>
    <line class="cls-1" x1="347.28" y1="307.86" x2="470.83" y2="542.47"/>
    <path class="cls-1" d="m296.4,39.6c73.02,22.64,116.06,86,93.41,159.03-18.11,58.42-80.16,91.09-138.58,72.98-46.73-14.49-78.56-69.5-64.07-116.24,11.59-37.39,71.05-69.83,108.43-58.23,29.91,9.27,57.25,59.04,47.98,88.96-7.42,23.93-49.02,50.36-72.95,42.94-19.14-5.94-41.34-36.28-35.41-55.43,4.75-15.31,29.07-36.6,44.39-31.86,12.25,3.8,25.73,23.13,21.93,35.38-3.04,9.8-17.76,11.9-27.56,8.86"/>
    <line class="cls-2" x1="990.51" y1="491.03" x2="1043.56" y2="491.03"/>
    <line class="cls-2" x1="834.03" y1="330.04" x2="834.03" y2="276.99"/>
    <line class="cls-2" x1="941.25" y1="380.4" x2="978.77" y2="342.89"/>
  </g>
</svg>