<?xml version="1.0" encoding="UTF-8"?>
<svg xmlns="http://www.w3.org/2000/svg" viewBox="0 0 226.77 226.77">
  <defs>
    <style>
      .cls-1 {
        stroke-width: 7.86px;
      }

      .cls-1, .cls-2 {
        fill: none;
        stroke: #fff;
        stroke-linecap: round;
        stroke-linejoin: round;
      }

      .cls-2 {
        stroke-width: 5.34px;
      }

      .cls-3 {
        fill: #f19cb2;
      }
    </style>
  </defs>
  <g id="Capa_5" data-name="Capa 5">
    <polygon class="cls-3" points="21.3 92.59 21.3 195.26 26.32 200.99 34.95 204.04 176.93 203.08 184.69 196.87 184.69 192.53 184.69 173.14 196.36 172.33 196.36 138.65 183.58 138.65 184.69 116.3 176.54 107.51 171.04 106.71 167.16 92.59 158.56 86.14 125.88 83.92 27.77 85.15 23.18 88.85 21.3 92.59"/>
    <circle class="cls-3" cx="59.93" cy="40.08" r="27.4"/>
  </g>
  <g id="Capa_4" data-name="Capa 4">
    <path class="cls-1" d="m159.83,84.58H37.24s-10.44-1.2-13.65,8.66v11.03"/>
    <path class="cls-1" d="m171.73,107.33H37.24s-10.44,1.2-13.65-10.44"/>
    <path class="cls-1" d="m158.08,84.58h0s10.44-1.2,13.65,10.44v12.35"/>
    <path class="cls-1" d="m173.33,107.36s10.44-1.2,13.65,10.44v21.47"/>
    <path class="cls-1" d="m173.33,204.7H37.24s-10.44,1.2-13.65-12.21v-94.78"/>
    <path class="cls-1" d="m173.33,204.7s10.44,1.2,13.65-10.44v-20.47"/>
    <path class="cls-1" d="m140.25,149.75h0c3.21-11.64,13.65-10.44,13.65-10.44h44.75v34.49"/>
    <line class="cls-1" x1="140.25" y1="149.75" x2="140.25" y2="163.36"/>
    <path class="cls-1" d="m140.25,163.36h0c3.21,11.64,13.65,10.44,13.65,10.44h44.75s-1.76,0-1.76,0"/>
    <circle class="cls-1" cx="157.84" cy="156.53" r="1.77"/>
    <circle class="cls-2" cx="60.48" cy="40.72" r="26.3"/>
    <line class="cls-2" x1="72.74" y1="63.99" x2="95.17" y2="106.6"/>
    <path class="cls-2" d="m63.5,15.28c13.26,4.11,21.08,15.62,16.96,28.88-3.29,10.61-14.56,16.54-25.17,13.25-8.49-2.63-14.27-12.62-11.64-21.11,2.11-6.79,12.9-12.68,19.69-10.58,5.43,1.68,10.4,10.72,8.71,16.15-1.35,4.35-8.9,9.15-13.25,7.8-3.48-1.08-7.51-6.59-6.43-10.07.86-2.78,5.28-6.65,8.06-5.78,2.22.69,4.67,4.2,3.98,6.43-.55,1.78-3.23,2.16-5.01,1.61"/>
    <line class="cls-1" x1="189.55" y1="97.26" x2="199.18" y2="97.26"/>
    <line class="cls-1" x1="161.13" y1="68.02" x2="161.13" y2="58.39"/>
    <line class="cls-1" x1="180.6" y1="77.17" x2="187.41" y2="70.35"/>
  </g>
</svg>